Coordinates
version=1
nRows=4
nColumns=114
inDegrees=yes

Units are S.I. units (second, meters, Newtons, ...)
If the header above contains a line with 'inDegrees', this indicates whether rotational values are in degrees (yes) or radians (no).

endheader 
time	pelvis_tilt	pelvis_list	pelvis_rotation	pelvis_tx	pelvis_ty	pelvis_tz	hip_flexion_l	hip_adduction_l	hip_rotation_l	hip_flexion_r	hip_adduction_r	hip_rotation_r	knee_angle_l	knee_angle_r	ankle_angle_l	ankle_angle_r	subtalar_angle_l	subtalar_angle_r	mtp_angle_l	mtp_angle_r	lumbar_extension	lumbar_bending	lumbar_rotation	arm_flex_l	arm_add_l	arm_rot_l	arm_flex_r	arm_add_r	arm_rot_r	elbow_flex_l	elbow_flex_r	pro_sup_l	pro_sup_r	addbrev_l/activation	addlong_l/activation	addmagDist_l/activation	addmagIsch_l/activation	addmagMid_l/activation	addmagProx_l/activation	bflh_l/activation	bfsh_l/activation	edl_l/activation	ehl_l/activation	fdl_l/activation	fhl_l/activation	gaslat_l/activation	gasmed_l/activation	glmax1_l/activation	glmax2_l/activation	glmax3_l/activation	glmed1_l/activation	glmed2_l/activation	glmed3_l/activation	glmin1_l/activation	glmin2_l/activation	glmin3_l/activation	grac_l/activation	iliacus_l/activation	perbrev_l/activation	perlong_l/activation	piri_l/activation	psoas_l/activation	recfem_l/activation	sart_l/activation	semimem_l/activation	semiten_l/activation	soleus_l/activation	tfl_l/activation	tibant_l/activation	tibpost_l/activation	vasint_l/activation	vaslat_l/activation	vasmed_l/activation	addbrev_r/activation	addlong_r/activation	addmagDist_r/activation	addmagIsch_r/activation	addmagMid_r/activation	addmagProx_r/activation	bflh_r/activation	bfsh_r/activation	edl_r/activation	ehl_r/activation	fdl_r/activation	fhl_r/activation	gaslat_r/activation	gasmed_r/activation	glmax1_r/activation	glmax2_r/activation	glmax3_r/activation	glmed1_r/activation	glmed2_r/activation	glmed3_r/activation	glmin1_r/activation	glmin2_r/activation	glmin3_r/activation	grac_r/activation	iliacus_r/activation	perbrev_r/activation	perlong_r/activation	piri_r/activation	psoas_r/activation	recfem_r/activation	sart_r/activation	semimem_r/activation	semiten_r/activation	soleus_r/activation	tfl_r/activation	tibant_r/activation	tibpost_r/activation	vasint_r/activation	vaslat_r/activation	vasmed_r/activation	
          2.40000000	          2.14782387	         -5.81728433	          4.47458355	         -3.42662387	          0.93749654	         -0.03910025	          4.27786155	         -3.22123640	          6.14309681	         23.68095888	         10.81305719	         -9.81361168	         62.73674820	         41.80938274	        -17.12012764	          7.70147326	        -19.93822290	        -34.99947909	          4.73083564	          4.99993785	        -13.88571320	         15.96314825	        -28.09314533	         50.52180319	        -10.15174453	         32.96665674	         57.55732440	         -0.78732471	         33.39211531	         18.08373436	        144.85782412	         72.35640535	         95.97671084	          0.10244174	          0.02536459	          0.07304237	          0.02476310	          0.23680662	          0.15012381	          0.01746220	          0.01008628	          0.40188365	          0.10401496	          0.01003041	          0.01001481	          0.06404815	          0.11187661	          0.01470606	          0.01723581	          0.22695438	          0.01002607	          0.01004941	          0.01007443	          0.01006702	          0.01007078	          0.01010929	          0.01268400	          0.01007152	          0.18319280	          0.23035738	          0.01006264	          0.01003199	          0.01047655	          0.01003614	          0.01656829	          0.02116943	          0.02663587	          0.01526176	          0.22880699	          0.01000390	          0.02790726	          0.06018013	          0.02516506	          0.01023275	          0.01019505	          0.01475248	          0.02137484	          0.01170128	          0.01026795	          0.02407882	          0.01110577	          0.09197274	          0.01410583	          0.01008596	          0.01100289	          0.01005407	          0.10530032	          0.10623418	          0.22102317	          0.02242474	          0.28338884	          0.16196674	          0.01697641	          0.07668763	          0.08549731	          0.05883093	          0.01084649	          0.01009111	          0.01772907	          0.01767269	          0.12199106	          0.01003566	          0.16097340	          0.01007363	          0.23088000	          0.01706985	          0.43848583	          0.10828324	          0.01208783	          0.25546986	          0.11128788	          0.12821199	          0.15222909	
          2.41000000	          1.75045302	         -6.27193459	          2.33434149	         -3.40230802	          0.93827758	         -0.04235270	          8.71469933	         -3.81184122	          4.59936316	         23.37876371	         11.29445521	         -9.83953607	         66.87268738	         43.55653208	        -19.13611080	          9.49203148	        -21.62794271	        -34.99820371	          4.99648294	          3.01464507	        -13.60538377	         16.16569522	        -27.34463742	         51.88943945	        -11.89677031	         33.86076412	         57.62382783	          0.06514099	         12.13649993	         16.55976871	        148.21957432	         72.10099576	         95.19298932	          0.16230032	          0.28201201	          0.06087438	          0.02064025	          0.19735150	          0.12527101	          0.01455753	          0.03309062	          0.33490712	          0.08672053	          0.02937358	          0.01122075	          0.05337459	          0.09323101	          0.01227032	          0.01436853	          0.18913175	          0.01009865	          0.01013851	          0.01013788	          0.01037459	          0.01043717	          0.01050790	          0.11152930	          0.02884870	          0.15267457	          0.19197141	          0.01049130	          0.01658540	          0.21203700	          0.03444597	          0.01385810	          0.01764987	          0.02219696	          0.06749077	          0.19069277	          0.04403762	          0.02326276	          0.05015248	          0.02097593	          0.01021272	          0.01018464	          0.01234347	          0.01783107	          0.01052557	          0.01079299	          0.02008609	          0.01138750	          0.07665718	          0.01201677	          0.02298935	          0.07258885	          0.08183555	          0.13149390	          0.08873799	          0.18420289	          0.01871470	          0.23617357	          0.13503716	          0.05611707	          0.06395631	          0.07136378	          0.04951701	          0.01047036	          0.01081590	          0.01482093	          0.01474345	          0.24644264	          0.01071969	          0.29130319	          0.01533922	          0.19240595	          0.01425746	          0.43658966	          0.10836590	          0.01024581	          0.22373532	          0.09357346	          0.28137506	          0.12745483	
          2.42000000	          1.52398320	         -6.20356359	          0.40156597	         -3.37577488	          0.93979178	         -0.04565456	         12.04793944	         -3.91403605	          3.49506860	         21.98497022	         11.24138156	         -9.53491337	         69.65569044	         44.18382026	        -18.11712102	         10.26626920	        -23.89186167	        -34.96988318	          4.51071564	         -0.24320652	        -13.26214938	         15.73680253	        -26.89454766	         51.22650235	        -12.68667119	         29.65800810	         56.47358263	         -0.67972357	         -0.32219171	         16.50167503	        149.85508328	         71.16754035	         94.91312253	          0.13571538	          0.23520519	          0.05073338	          0.01720401	          0.16447094	          0.10457934	          0.01213562	          0.02771099	          0.27910903	          0.07234654	          0.03053829	          0.01731836	          0.04448022	          0.07769343	          0.01024651	          0.01197997	          0.15761278	          0.01015168	          0.01016318	          0.01013963	          0.01344333	          0.01666677	          0.01817541	          0.09303207	          0.14574080	          0.12724658	          0.15998444	          0.05014061	          0.34992147	          0.31487568	          0.15463956	          0.01158576	          0.01471439	          0.01849821	          0.09078565	          0.37152386	          0.06294365	          0.01939820	          0.04179861	          0.01748922	          0.01009245	          0.01007508	          0.01036126	          0.01488025	          0.01022791	          0.01039689	          0.01676430	          0.01096387	          0.07309820	          0.01061115	          0.04980228	          0.07186085	          0.06820656	          0.10959605	          0.10917291	          0.15352457	          0.01562464	          0.19684398	          0.11270197	          0.23782383	          0.05336896	          0.05987456	          0.04288430	          0.01021463	          0.01100391	          0.01238883	          0.01229952	          0.22554755	          0.01174733	          0.28809589	          0.02526403	          0.16034896	          0.01192225	          0.36397313	          0.12433234	          0.01027882	          0.24582636	          0.08009775	          0.29800350	          0.15327113	
          2.43000000	          1.37026130	         -5.92026352	         -1.32178384	         -3.34852554	          0.94157306	         -0.04884597	         14.96629975	         -3.84798095	          2.74658728	         20.12530972	         10.98188323	         -8.83450252	         71.63826964	         44.24119020	        -14.95667784	         11.18602957	        -25.95085267	        -34.92253754	          3.67984283	         -3.40551645	        -12.81966368	         15.07692389	        -26.75199705	         49.81878199	        -13.47800590	         26.27608361	         53.88761982	         -2.07417771	         -7.32230499	         17.31600245	        150.11604431	         70.24927796	         94.82795081	          0.11341811	          0.19611179	          0.04228395	          0.01434255	          0.13707595	          0.08747388	          0.01012086	          0.02314271	          0.24875393	          0.10548371	          0.02615254	          0.01445933	          0.03706774	          0.06474491	          0.01005748	          0.01002802	          0.13134922	          0.01013532	          0.01015749	          0.01013120	          0.01170118	          0.01410637	          0.01538182	          0.07760900	          0.12148716	          0.10606008	          0.13334098	          0.16259236	          0.29162731	          0.26246101	          0.12893794	          0.01005684	          0.01227018	          0.01541549	          0.07566646	          0.63701104	          0.05248275	          0.01640003	          0.04818307	          0.01474762	          0.01006271	          0.01004401	          0.01014172	          0.01243503	          0.01018105	          0.01024811	          0.01401207	          0.01089519	          0.06092425	          0.01979407	          0.04592700	          0.06086845	          0.05923180	          0.09134683	          0.09357152	          0.12796344	          0.01307415	          0.16412118	          0.21419979	          0.19859974	          0.04463289	          0.05587999	          0.10472650	          0.01016962	          0.01026982	          0.01038534	          0.01026791	          0.18805160	          0.01030601	          0.32197221	          0.02119486	          0.13363114	          0.01017940	          0.40718361	          0.13994743	          0.09964894	          0.24092068	          0.06690189	          0.24836517	          0.18956388	
